<?xml version="1.0" encoding="utf-8"?>
<!-- Generator: Adobe Illustrator 16.0.0, SVG Export Plug-In . SVG Version: 6.00 Build 0)  -->
<!DOCTYPE svg PUBLIC "-//W3C//DTD SVG 1.1//EN" "http://www.w3.org/Graphics/SVG/1.1/DTD/svg11.dtd">
<svg version="1.1" id="Layer_1" xmlns="http://www.w3.org/2000/svg" xmlns:xlink="http://www.w3.org/1999/xlink" x="0px" y="0px"
	 width="468px" height="163px" viewBox="0 0 468 163" enable-background="new 0 0 468 163" xml:space="preserve">
<g>
	<path fill="#FFFFFF" d="M35.604,147.844c-8.125-4.641-14.482-11.06-19.062-19.25c-4.579-8.201-6.87-17.326-6.87-27.387
		c0-10.326,2.223-19.577,6.677-27.773c4.451-8.196,10.677-14.582,18.677-19.163c7.998-4.577,17.031-6.87,27.094-6.87
		c15.221,0,27.867,5.81,37.931,17.413c1.288,1.43,1.935,3.098,1.935,5.044c0,2.832-1.421,5.218-4.255,7.158
		c-1.291,0.897-2.777,1.353-4.451,1.353c-2.971,0-5.483-1.163-7.549-3.488c-3.226-3.479-6.742-6.028-10.547-7.642
		c-3.807-1.615-8.163-2.425-13.062-2.425c-9.935,0-17.998,3.327-24.193,9.974c-6.19,6.647-9.288,15.452-9.288,26.419
		c0,6.967,1.451,13.186,4.356,18.675c2.901,5.479,6.965,9.771,12.19,12.87c5.227,3.092,11.193,4.643,17.902,4.643
		c8.771,0,15.871-2.252,21.289-6.772c2.449-1.806,4.837-2.712,7.161-2.712c1.804,0,3.483,0.581,5.029,1.744
		c2.451,2.064,3.68,4.392,3.68,6.968c0,1.935-0.774,3.68-2.323,5.223c-9.288,8.647-20.903,12.968-34.835,12.968
		C52.89,154.812,43.732,152.491,35.604,147.844z"/>
	<path fill="#FFFFFF" d="M134.21,27.177c-2.518-2.519-3.775-5.516-3.775-9.002c0-3.481,1.258-6.484,3.775-8.998
		c2.516-2.513,5.516-3.771,9-3.771c3.483,0,6.479,1.258,8.995,3.771c2.519,2.514,3.776,5.517,3.776,8.998
		c0,3.486-1.258,6.484-3.776,9.002c-2.517,2.514-5.512,3.775-8.995,3.775S136.727,29.691,134.21,27.177z M136.142,151.23
		c-1.87-1.871-2.805-4.225-2.805-7.062V58.048c0-2.968,0.935-5.358,2.805-7.158c1.87-1.809,4.229-2.714,7.068-2.714
		c2.962,0,5.351,0.905,7.158,2.714c1.804,1.8,2.709,4.19,2.709,7.158v86.122c0,2.837-0.905,5.189-2.709,7.061
		c-1.808,1.875-4.196,2.805-7.158,2.805C140.37,154.034,138.012,153.104,136.142,151.23z"/>
	<path fill="#FFFFFF" d="M208.115,147.844c-8.125-4.641-14.482-11.06-19.062-19.25c-4.582-8.201-6.87-17.326-6.87-27.387
		c0-10.326,2.226-19.577,6.677-27.773c4.451-8.196,10.675-14.582,18.675-19.163c7.998-4.577,17.029-6.87,27.093-6.87
		c15.226,0,27.871,5.81,37.936,17.413c1.288,1.43,1.937,3.098,1.937,5.044c0,2.832-1.422,5.218-4.263,7.158
		c-1.287,0.897-2.773,1.353-4.447,1.353c-2.972,0-5.484-1.163-7.547-3.488c-3.229-3.479-6.745-6.028-10.553-7.642
		c-3.805-1.615-8.161-2.425-13.062-2.425c-9.934,0-17.998,3.327-24.191,9.974c-6.189,6.647-9.286,15.452-9.286,26.419
		c0,6.967,1.446,13.186,4.353,18.675c2.905,5.479,6.967,9.771,12.196,12.87c5.223,3.092,11.189,4.643,17.896,4.643
		c8.774,0,15.872-2.252,21.291-6.772c2.449-1.806,4.839-2.712,7.16-2.712c1.805,0,3.484,0.581,5.033,1.744
		c2.447,2.064,3.677,4.392,3.677,6.968c0,1.935-0.774,3.68-2.323,5.223c-9.292,8.647-20.902,12.968-34.838,12.968
		C225.406,154.812,216.245,152.491,208.115,147.844z"/>
	<path fill="#FFFFFF" d="M316.322,149.486c-4.451-3.028-7.905-7.284-10.356-12.769c-2.451-5.483-3.674-11.642-3.674-18.483V12.563
		c0-2.837,0.901-5.158,2.707-6.968c1.807-1.802,4.13-2.704,6.968-2.704c2.839,0,5.16,0.902,6.967,2.704
		c1.809,1.81,2.713,4.131,2.713,6.968v105.671c0,4.776,0.898,8.707,2.706,11.8c1.809,3.104,4.128,4.651,6.968,4.651h4.84
		c2.579,0,4.674,0.901,6.288,2.707c1.611,1.81,2.42,4.135,2.42,6.967c0,2.844-1.229,5.164-3.679,6.969
		c-2.45,1.811-5.61,2.706-9.479,2.706h-0.39C325.771,154.034,320.772,152.518,316.322,149.486z"/>
	<path fill="#FFFFFF" d="M378.73,147.941c-8.127-4.582-14.449-10.94-18.963-19.065c-4.519-8.125-6.773-17.349-6.773-27.669
		c0-10.456,2.256-19.745,6.773-27.871c4.514-8.13,10.836-14.484,18.963-19.065c8.132-4.577,17.353-6.87,27.678-6.87
		c10.19,0,19.321,2.293,27.382,6.87c8.065,4.581,14.387,10.935,18.974,19.065c4.576,8.125,6.87,17.415,6.87,27.871
		c0,10.32-2.256,19.544-6.777,27.669c-4.518,8.125-10.805,14.483-18.864,19.065c-8.064,4.576-17.265,6.869-27.583,6.869
		C396.082,154.812,386.862,152.518,378.73,147.941z M424.115,132.752c5.224-3.1,9.293-7.393,12.19-12.87
		c2.907-5.489,4.357-11.708,4.357-18.675c0-6.968-1.45-13.225-4.357-18.777c-2.897-5.539-6.968-9.87-12.19-12.963
		c-5.225-3.098-11.126-4.653-17.708-4.653c-6.578,0-12.48,1.555-17.71,4.653c-5.223,3.093-9.32,7.424-12.284,12.963
		c-2.972,5.555-4.454,11.811-4.454,18.777s1.482,13.186,4.454,18.675c2.964,5.479,7.062,9.771,12.284,12.87
		c5.229,3.092,11.132,4.643,17.71,4.643C412.99,137.395,418.892,135.844,424.115,132.752z"/>
</g>
</svg>
